<svg xmlns="http://www.w3.org/2000/svg" viewBox="0 0 26 34" width="26" height="34">
	<style>
		tspan { white-space:pre }
		.shp0 { fill: #e74c3c } 
	</style>
	<path id="Forma 1" class="shp0" d="M23.89 19.3L21.38 15.52C21.26 15.34 21.06 15.24 20.85 15.24C20.64 15.24 20.44 15.34 20.32 15.52L17.81 19.3C17.68 19.5 17.66 19.76 17.77 19.97C17.89 20.18 18.1 20.32 18.34 20.32L19.58 20.32C19.04 22.57 16.83 24.37 14.5 24.93L14.5 10.47L16.49 10.47C17.04 10.47 17.49 10.01 17.49 9.45C17.49 8.89 17.04 8.43 16.49 8.43L15.46 8.43C16.18 7.75 16.64 6.79 16.64 5.71C16.64 3.66 15.01 2 13 2C10.99 2 9.36 3.66 9.36 5.71C9.36 6.79 9.82 7.75 10.54 8.43L9.51 8.43C8.96 8.43 8.51 8.89 8.51 9.45C8.51 10.01 8.96 10.47 9.51 10.47L11.5 10.47L11.5 24.93C9.17 24.37 6.95 22.57 6.42 20.32L7.66 20.32C7.9 20.32 8.11 20.18 8.23 19.97C8.34 19.76 8.32 19.5 8.19 19.3L5.68 15.52C5.56 15.34 5.36 15.24 5.15 15.24C4.94 15.24 4.74 15.34 4.62 15.52L2.11 19.3C1.98 19.5 1.96 19.76 2.07 19.97C2.18 20.18 2.4 20.32 2.64 20.32L3.99 20.32C4.49 23.81 7.45 27.38 10.77 28.56L10.52 28.87C10.34 29.09 10.33 29.4 10.48 29.64L12.46 32.7C12.58 32.89 12.78 33 13 33C13.22 33 13.42 32.89 13.54 32.7L15.52 29.64C15.67 29.4 15.66 29.09 15.48 28.87L15.23 28.56C18.55 27.38 21.51 23.81 22.01 20.32L23.36 20.32C23.6 20.32 23.81 20.18 23.93 19.97C24.04 19.76 24.02 19.5 23.89 19.3ZM13 4.03C13.91 4.03 14.64 4.79 14.64 5.71C14.64 6.64 13.91 7.39 13 7.39C12.09 7.39 11.36 6.64 11.36 5.71C11.36 4.79 12.09 4.03 13 4.03Z" />
</svg>