<svg xmlns="http://www.w3.org/2000/svg" viewBox="0 0 24 32" width="24" height="32">
	<style>
		tspan { white-space:pre }
		.shp0 { fill: #ffffff } 
	</style>
	<path id="Forma 1" class="shp0" d="M21.09 2L2.91 2C1.86 2 1 2.78 1 3.75L1 28.76C1 29.26 1.22 29.67 1.6 29.87C1.99 30.07 2.48 30.04 2.96 29.78L11.01 25.43C11.54 25.14 12.46 25.14 12.99 25.43L21.04 29.78C21.31 29.93 21.59 30 21.85 30C22.04 30 22.23 29.96 22.4 29.87C22.78 29.67 23 29.26 23 28.76L23 3.75C23 2.78 22.14 2 21.09 2ZM22.04 28.76C22.04 28.97 21.98 29.08 21.92 29.11C21.87 29.14 21.73 29.13 21.53 29.03L13.48 24.67C13.06 24.45 12.53 24.34 12 24.34C11.47 24.34 10.94 24.45 10.52 24.67L2.47 29.03C2.27 29.13 2.13 29.14 2.08 29.11C2.02 29.08 1.96 28.97 1.96 28.76L1.96 3.75C1.96 3.27 2.39 2.87 2.91 2.87L2.91 3.75C2.91 3.99 3.13 4.19 3.39 4.19C3.66 4.19 3.87 3.99 3.87 3.75L3.87 2.87L20.13 2.87L20.13 3.75C20.13 3.99 20.34 4.19 20.61 4.19C20.87 4.19 21.09 3.99 21.09 3.75L21.09 2.87C21.61 2.87 22.04 3.27 22.04 3.75L22.04 28.76L22.04 28.76ZM3.39 5.06C3.13 5.06 2.91 5.26 2.91 5.5L2.91 6.37C2.91 6.62 3.13 6.81 3.39 6.81C3.66 6.81 3.87 6.62 3.87 6.37L3.87 5.5C3.87 5.26 3.66 5.06 3.39 5.06ZM3.39 7.69C3.13 7.69 2.91 7.88 2.91 8.12L2.91 26.94C2.91 27.18 3.13 27.37 3.39 27.37C3.66 27.37 3.87 27.18 3.87 26.94L3.87 8.12C3.87 7.88 3.66 7.69 3.39 7.69ZM20.61 5.06C20.34 5.06 20.13 5.26 20.13 5.5L20.13 6.37C20.13 6.62 20.34 6.81 20.61 6.81C20.87 6.81 21.09 6.62 21.09 6.37L21.09 5.5C21.09 5.26 20.87 5.06 20.61 5.06ZM20.61 7.69C20.34 7.69 20.13 7.88 20.13 8.12L20.13 26.94C20.13 27.18 20.34 27.37 20.61 27.37C20.87 27.37 21.09 27.18 21.09 26.94L21.09 8.12C21.09 7.88 20.87 7.69 20.61 7.69Z" />
</svg>