<svg xmlns="http://www.w3.org/2000/svg" viewBox="0 0 23 21" width="23" height="21">
	<style>
		tspan { white-space:pre }
		.shp0 { fill: #999999 } 
	</style>
	<path id="google plus" class="shp0" d="M10.98 12.03C10.47 11.66 9.49 10.78 9.49 10.26C9.49 9.66 9.67 9.36 10.58 8.65C11.51 7.91 12.06 7.01 12.06 5.82C12.06 4.39 11.53 2.67 10.35 2.67L12.14 2.67L13.4 1.84C13.4 1.84 9.17 1.84 7.76 1.84C5.24 1.84 2.86 3.6 2.86 5.82C2.86 8.1 4.58 9.85 7.15 9.85C7.33 9.85 7.5 9.81 7.67 9.79C7.51 10.11 7.39 10.45 7.39 10.83C7.39 11.46 7.73 11.96 8.16 12.38C7.83 12.38 7.52 12.38 7.18 12.38C4.05 12.38 1.2 14.07 1.2 16.15C1.2 18.19 4.28 19.34 7.41 19.34C10.98 19.34 12.82 17.75 12.82 15.7C12.82 14.06 12.46 13.08 10.98 12.03ZM7.97 9.19C6.52 9.15 5.14 7.56 4.89 5.64C4.64 3.73 5.61 2.26 7.06 2.31C8.51 2.35 9.89 3.89 10.14 5.8C10.39 7.72 9.42 9.23 7.97 9.19ZM7.4 18.43C5.24 18.43 3.68 17.5 3.68 15.85C3.68 14.23 5.61 12.88 7.77 12.91C8.28 12.91 8.75 12.99 9.18 13.13C10.35 13.95 10.98 14.42 11.22 15.35C11.27 15.54 11.29 15.73 11.29 15.93C11.29 17.59 10.44 18.43 7.4 18.43ZM18.64 2.63L18.64 5.17L21.12 5.17L21.12 6.85L18.64 6.85L18.64 9.35L16.98 9.35L16.98 6.85L14.5 6.85L14.5 5.17L16.98 5.17L16.98 2.63L18.64 2.63Z" />
</svg>
