<svg xmlns="http://www.w3.org/2000/svg" viewBox="0 0 23 22" width="23" height="22">
	<style>
		tspan { white-space:pre }
		.shp0 { fill: #999999 } 
	</style>
	<path id="linkedin" class="shp0" d="M1.71 18.16L5.86 18.16L5.86 5.67L1.71 5.67L1.71 18.16ZM16.46 5.25C14.65 5.25 13.59 5.92 12.45 7.38L12.45 5.67L8.33 5.67L8.33 18.16L12.47 18.16L12.47 11.39C12.47 9.96 13.19 8.57 14.83 8.57C16.46 8.57 17.46 9.96 17.46 11.36L17.46 18.16L21.6 18.16L21.6 11.08C21.6 6.16 18.27 5.25 16.46 5.25ZM3.8 -0.41C2.46 -0.41 1.37 0.58 1.37 1.79C1.37 3 2.46 3.99 3.8 3.99C5.15 3.99 6.24 3 6.24 1.79C6.24 0.58 5.15 -0.41 3.8 -0.41Z" />
</svg>
