<svg xmlns="http://www.w3.org/2000/svg" viewBox="0 0 30 25" width="30" height="25">
	<style>
		tspan { white-space:pre }
		.shp0 { fill: #e74c3c } 
	</style>
	<path id="Forma 1" class="shp0" d="M22.62 23.12L17.43 23.12L17.43 21.21C17.43 20.97 17.23 20.77 16.98 20.77C16.74 20.77 16.54 20.97 16.54 21.21L16.54 23.12L14.46 23.12L14.46 21.21C14.46 20.97 14.26 20.77 14.02 20.77C13.77 20.77 13.57 20.97 13.57 21.21L13.57 23.12L8.38 23.12C8.13 23.12 7.93 23.32 7.93 23.56C7.93 23.8 8.13 24 8.38 24L22.62 24C22.87 24 23.07 23.8 23.07 23.56C23.07 23.32 22.87 23.12 22.62 23.12ZM27.96 2L3.04 2C2.47 2 2 2.46 2 3.03L2 18.87C2 19.43 2.47 19.89 3.04 19.89L22.77 19.89L22.77 20.04C22.77 20.28 22.97 20.48 23.21 20.48C23.46 20.48 23.66 20.28 23.66 20.04L23.66 19.89L24.55 19.89L24.55 20.04C24.55 20.28 24.75 20.48 24.99 20.48C25.24 20.48 25.44 20.28 25.44 20.04L25.44 19.89L26.33 19.89L26.33 20.04C26.33 20.28 26.53 20.48 26.77 20.48C27.02 20.48 27.22 20.28 27.22 20.04L27.22 19.89L27.96 19.89C28.53 19.89 29 19.43 29 18.87L29 3.03C29 2.46 28.53 2 27.96 2ZM28.11 18.87C28.11 18.94 28.04 19.01 27.96 19.01L3.04 19.01C2.96 19.01 2.89 18.94 2.89 18.87L2.89 3.03C2.89 2.95 2.96 2.88 3.04 2.88L27.96 2.88C28.04 2.88 28.11 2.95 28.11 3.03L28.11 18.87ZM26.77 3.76L4.23 3.76C3.98 3.76 3.78 3.96 3.78 4.2C3.78 4.44 3.98 4.64 4.23 4.64L26.33 4.64L26.33 13.59C26.33 13.83 26.53 14.03 26.77 14.03C27.02 14.03 27.22 13.83 27.22 13.59L27.22 4.2C27.22 3.96 27.02 3.76 26.77 3.76ZM26.77 14.91C26.53 14.91 26.33 15.1 26.33 15.35L26.33 17.25L4.67 17.25L4.67 5.96C4.67 5.72 4.47 5.52 4.23 5.52C3.98 5.52 3.78 5.72 3.78 5.96L3.78 17.69C3.78 17.94 3.98 18.13 4.23 18.13L26.77 18.13C27.02 18.13 27.22 17.94 27.22 17.69L27.22 15.35C27.22 15.1 27.02 14.91 26.77 14.91Z" />
</svg>