<svg xmlns="http://www.w3.org/2000/svg" viewBox="0 0 34 29" width="34" height="29">
	<style>
		tspan { white-space:pre }
		.shp0 { fill: #e74c3c } 
	</style>
	<path id="Forma 1" class="shp0" d="M19.4 2C18.88 2 18.37 2.1 17.94 2.31L2.77 9.63C2.34 9.84 2 10.18 2 10.62C2 11.07 2.34 11.41 2.77 11.62L11.3 15.74C11.37 15.77 11.44 15.78 11.51 15.78L20.04 15.63C20.1 15.63 20.17 15.61 20.22 15.58L32.23 9.8C32.66 9.59 33 9.24 33 8.8C33 8.35 32.66 8.01 32.23 7.8L20.86 2.31C20.42 2.1 19.91 2 19.4 2ZM19.4 2.9C19.8 2.9 20.2 2.96 20.46 3.09L31.84 8.58C32.1 8.7 32.11 8.8 32.11 8.8C32.11 8.79 32.1 8.89 31.84 9.02L20.03 14.71L15.8 12.67C15.73 12.64 15.66 12.63 15.59 12.63C15.53 12.63 15.46 12.65 15.41 12.67L11.18 14.71L3.17 10.85C2.9 10.72 2.89 10.62 2.89 10.62C2.89 10.63 2.9 10.53 3.17 10.4L18.33 3.09C18.59 2.96 19 2.9 19.4 2.9ZM20.65 4.92C20.53 4.93 20.43 5.02 20.44 5.14C20.44 5.23 20.49 5.3 20.56 5.33L26.88 8.38C26.99 8.44 27.12 8.4 27.18 8.29C27.24 8.18 27.19 8.05 27.09 8C27.08 8 27.08 7.99 27.08 7.99L20.76 4.95C20.72 4.93 20.69 4.92 20.65 4.92ZM17.49 6.45C17.37 6.45 17.27 6.55 17.28 6.67C17.28 6.75 17.33 6.82 17.4 6.86L23.72 9.9C23.83 9.96 23.96 9.92 24.02 9.81C24.08 9.71 24.04 9.58 23.93 9.52C23.92 9.52 23.92 9.52 23.92 9.52L17.6 6.47C17.57 6.45 17.53 6.44 17.49 6.45ZM14.33 7.97C14.21 7.97 14.11 8.07 14.12 8.19C14.12 8.27 14.17 8.35 14.24 8.38L20.56 11.43C20.67 11.48 20.8 11.44 20.86 11.33C20.91 11.22 20.87 11.09 20.76 11.04L14.44 7.99C14.41 7.98 14.37 7.97 14.33 7.97ZM8.87 8.12C8.84 8.12 8.8 8.13 8.77 8.15L4.04 10.43C3.93 10.48 3.88 10.61 3.93 10.72C3.96 10.76 3.99 10.8 4.04 10.82L6.25 11.89C6.35 11.94 6.49 11.9 6.55 11.8C6.6 11.69 6.56 11.56 6.45 11.5C6.45 11.5 6.45 11.5 6.44 11.5L4.63 10.62L8.97 8.53C9.08 8.48 9.13 8.35 9.07 8.25C9.04 8.17 8.96 8.12 8.87 8.12ZM15.61 13.55L18.19 14.8L12.82 14.89L15.61 13.55ZM32.38 13.6C32.3 13.6 32.21 13.62 32.14 13.66L15.42 21.6L2.79 15.4C2.53 15.26 2.2 15.36 2.07 15.62C1.93 15.88 2.03 16.2 2.3 16.33C2.3 16.33 2.3 16.33 2.31 16.34L15.18 22.66C15.33 22.73 15.5 22.73 15.65 22.66L32.61 14.6C32.88 14.48 32.99 14.17 32.87 13.9C32.78 13.72 32.59 13.6 32.38 13.6ZM20.73 17.81C20.69 17.81 20.64 17.82 20.61 17.84L15.35 20.41L10.63 18.05C10.5 17.98 10.34 18.04 10.27 18.17C10.2 18.29 10.26 18.45 10.39 18.52L15.23 20.94C15.3 20.98 15.39 20.98 15.47 20.94L20.85 18.31C20.98 18.25 21.04 18.09 20.97 17.96C20.93 17.87 20.83 17.81 20.73 17.81ZM32.38 18.85C32.3 18.85 32.21 18.87 32.14 18.91L15.42 26.85L2.79 20.65C2.53 20.51 2.2 20.61 2.06 20.86C1.92 21.12 2.02 21.44 2.29 21.58C2.29 21.58 2.3 21.58 2.31 21.59L15.18 27.91C15.33 27.98 15.5 27.98 15.65 27.91L32.61 19.85C32.88 19.73 32.99 19.42 32.87 19.15C32.78 18.97 32.59 18.85 32.38 18.85ZM20.73 23.06C20.69 23.06 20.64 23.07 20.61 23.09L15.35 25.66L10.63 23.3C10.5 23.23 10.34 23.28 10.27 23.41C10.2 23.54 10.25 23.7 10.38 23.77C10.38 23.77 10.39 23.77 10.39 23.77L15.23 26.19C15.3 26.23 15.39 26.23 15.47 26.19L20.85 23.56C20.98 23.5 21.04 23.34 20.97 23.21C20.93 23.12 20.83 23.06 20.73 23.06Z" />
</svg>