<svg xmlns="http://www.w3.org/2000/svg" viewBox="0 0 28 25" width="28" height="25">
	<style>
		tspan { white-space:pre }
		.shp0 { fill: #e74c3c } 
	</style>
	<path id="Forma 1" class="shp0" d="M23.65 6.2L21.02 6.19L18.51 2.39C18.36 2.15 18.1 2 17.82 2L11.05 2C10.78 2 10.53 2.15 10.38 2.37L7.78 6.19L5.35 6.2C3.51 6.2 2 7.73 2 9.6L2 20.58C2 22.44 3.51 24 5.35 24L23.65 24C25.49 24 27 22.44 27 20.58L27 9.6C27 7.73 25.49 6.2 23.65 6.2ZM25.35 20.58C25.35 21.52 24.58 22.33 23.65 22.33L5.35 22.33C4.42 22.33 3.65 21.52 3.65 20.58L3.65 9.6C3.65 8.65 4.42 7.87 5.35 7.87L8.22 7.87C8.5 7.87 8.74 7.72 8.9 7.5L11.49 3.68L17.38 3.68L19.88 7.47C20.04 7.69 20.3 7.84 20.56 7.84L23.63 7.87C24.57 7.87 25.34 8.65 25.34 9.6L25.34 20.58L25.35 20.58L25.35 20.58ZM14.57 8.21C11.34 8.21 8.73 10.86 8.73 14.12C8.73 17.38 11.35 20.03 14.57 20.03C17.78 20.03 20.41 17.38 20.41 14.12C20.41 10.86 17.78 8.21 14.57 8.21ZM14.57 18.36C12.26 18.36 10.38 16.46 10.38 14.12C10.38 11.78 12.26 9.88 14.57 9.88C16.88 9.88 18.76 11.78 18.76 14.12C18.76 16.46 16.88 18.36 14.57 18.36ZM22.38 10.33C22.56 10.33 22.7 10.48 22.7 10.65C22.7 10.83 22.56 10.97 22.38 10.97C22.21 10.97 22.07 10.83 22.07 10.65C22.07 10.48 22.21 10.33 22.38 10.33ZM22.38 9.5C21.75 9.5 21.24 10.01 21.24 10.65C21.24 11.29 21.75 11.81 22.38 11.81C23.02 11.81 23.52 11.29 23.52 10.65C23.52 10.01 23.02 9.5 22.38 9.5ZM22.38 11.17C22.1 11.17 21.88 10.93 21.88 10.65C21.88 10.38 22.11 10.14 22.38 10.14C22.66 10.14 22.89 10.38 22.89 10.65C22.89 10.93 22.67 11.17 22.38 11.17Z" />
</svg>