<svg xmlns="http://www.w3.org/2000/svg" viewBox="0 0 23 22" width="23" height="22">
	<style>
		tspan { white-space:pre }
		.shp0 { fill: #e74c3c } 
	</style>
	<path id="rss" class="shp0" d="M4.34 15.18C2.74 15.18 1.44 16.48 1.44 18.07C1.44 19.67 2.74 20.96 4.34 20.96C5.94 20.96 7.24 19.67 7.24 18.07C7.24 16.48 5.94 15.18 4.34 15.18ZM1.59 7.69C1.54 7.69 1.49 7.7 1.44 7.7L1.44 11.39C1.49 11.38 1.54 11.38 1.59 11.38C6.69 11.38 10.98 15.67 10.98 20.76C10.98 20.84 10.97 20.91 10.96 20.99L14.66 20.99C14.67 20.91 14.68 20.84 14.68 20.76C14.68 13.64 8.73 7.69 1.59 7.69ZM1.59 1.02C1.54 1.02 1.49 1.03 1.44 1.03L1.44 4.75C1.49 4.75 1.54 4.74 1.59 4.74C10.39 4.74 17.66 11.98 17.66 20.76C17.66 20.84 17.65 20.91 17.65 20.99L21.3 20.99C21.3 20.91 21.31 20.84 21.31 20.76C21.31 9.95 12.44 1.02 1.59 1.02Z" />
</svg>
