<svg xmlns="http://www.w3.org/2000/svg" viewBox="0 0 23 23" width="23" height="23">
	<style>
		tspan { white-space:pre }
		.shp0 { fill: #e74c3c } 
	</style>
	<path id="skype" class="shp0" d="M19.94 13.35C20 12.91 20.05 12.47 20.05 12.02C20.05 7.1 16.08 3.34 11.18 3.34C10.72 3.34 10.28 3.39 9.84 3.45C8.95 2.69 7.81 2 6.55 2C3.76 2 1.5 4.27 1.5 7.08C1.5 8.23 1.88 9.28 2.51 10.13C2.38 10.74 2.31 11.37 2.31 12.02C2.31 16.94 6.28 21.16 11.18 21.16C11.81 21.16 12.42 21.09 13.02 20.97C13.9 21.75 15.06 21.99 16.33 21.99C19.13 21.99 21.39 19.71 21.39 16.91C21.39 15.52 20.84 14.26 19.94 13.35ZM15.32 16.11C14.97 16.6 14.46 17 13.79 17.28C13.11 17.56 12.31 17.7 11.39 17.7C10.28 17.7 9.37 17.51 8.65 17.12C8.14 16.85 7.73 16.47 7.41 16.01C7.09 15.55 6.93 15.1 6.93 14.66C6.93 14.4 7.03 14.19 7.22 14.01C7.41 13.82 7.65 13.73 7.95 13.73C8.19 13.73 8.39 13.8 8.56 13.94C8.72 14.09 8.87 14.29 8.98 14.57C9.13 14.9 9.28 15.18 9.45 15.4C9.61 15.62 9.84 15.8 10.14 15.95C10.45 16.09 10.84 16.16 11.33 16.16C12 16.16 12.55 16.02 12.97 15.73C13.39 15.44 13.6 15.08 13.6 14.64C13.6 14.3 13.49 14.02 13.26 13.81C13.03 13.59 12.74 13.43 12.38 13.32C12.02 13.2 11.54 13.08 10.94 12.96C10.13 12.78 9.46 12.58 8.92 12.35C8.37 12.11 7.94 11.79 7.63 11.39C7.31 10.99 7.15 10.49 7.15 9.89C7.15 9.32 7.32 8.82 7.65 8.37C7.99 7.93 8.47 7.59 9.11 7.35C9.75 7.11 10.5 7 11.36 7C12.05 7 12.64 7.07 13.15 7.23C13.65 7.39 14.06 7.6 14.4 7.86C14.73 8.12 14.97 8.4 15.12 8.68C15.28 8.97 15.35 9.25 15.35 9.52C15.35 9.77 15.26 10 15.07 10.2C14.88 10.4 14.64 10.5 14.35 10.5C14.09 10.5 13.89 10.44 13.76 10.32C13.62 10.2 13.48 10 13.32 9.73C13.11 9.34 12.87 9.03 12.58 8.81C12.3 8.59 11.84 8.49 11.21 8.49C10.62 8.49 10.15 8.6 9.79 8.84C9.43 9.08 9.25 9.36 9.25 9.7C9.25 9.91 9.31 10.09 9.43 10.24C9.56 10.39 9.72 10.52 9.94 10.62C10.15 10.73 10.37 10.82 10.59 10.88C10.81 10.94 11.17 11.03 11.67 11.15C12.31 11.28 12.88 11.44 13.39 11.6C13.9 11.76 14.34 11.97 14.7 12.2C15.06 12.43 15.34 12.73 15.54 13.09C15.74 13.45 15.84 13.89 15.84 14.42C15.84 15.04 15.67 15.61 15.32 16.11Z" />
</svg>
