<svg xmlns="http://www.w3.org/2000/svg" viewBox="0 0 15 23" width="15" height="23">
	<style>
		tspan { white-space:pre }
		.shp0 { fill: #e74c3c } 
	</style>
	<path id="tumblr" class="shp0" d="M10.66 18.71C8.96 18.71 8.03 17.38 8.03 16.35C8.03 15.9 8.03 13.41 8.03 10.36L12.17 10.36L12.17 6.99L8.03 6.99C8.03 4.37 8.03 2 8.03 2C8.03 2 6.5 2 5.14 2C5.14 6.34 1.39 7.14 1.39 7.14L1.39 10.32L3.88 10.32C3.88 10.32 3.88 14.98 3.88 17.46C3.88 19.93 6.15 21.99 8.92 21.99C11.68 21.99 13.01 20.88 13.01 20.88L13.01 17.61C13.01 17.61 12.37 18.71 10.66 18.71Z" />
</svg>
