<svg xmlns="http://www.w3.org/2000/svg" viewBox="0 0 31 28" width="31" height="28">
	<style>
		tspan { white-space:pre }
		.shp0 { fill: #e74c3c } 
	</style>
	<path id="twitter" class="shp0" d="M25.54 5.06C25.21 5.24 24.2 5.62 23.27 5.71C23.87 5.38 24.76 4.32 24.98 3.47C24.4 3.84 23.07 4.38 22.42 4.38C22.42 4.38 22.42 4.38 22.42 4.38C21.67 3.6 20.62 2.98 19.45 2.98C17.18 2.98 15.53 4.95 15.53 7.23C15.53 7.55 15.56 7.85 15.63 8.15L15.63 8.15C12.55 8.07 9.01 6.36 6.99 3.72C5.74 5.88 6.82 8.44 8.23 9.32C7.75 9.36 6.86 9.26 6.44 8.85C6.41 10.29 7.1 12.19 9.61 12.88C9.12 13.14 8.27 13.07 7.9 13.01C8.03 14.23 9.72 15.81 11.56 15.81C10.91 16.58 8.43 17.97 5.65 17.52C7.54 18.68 9.74 19.35 12.07 19.35C18.69 19.35 24.12 13.96 23.84 7.31C23.84 7.3 23.84 7.29 23.84 7.28C23.84 7.26 23.84 7.25 23.84 7.23C23.84 7.21 23.84 7.19 23.84 7.17C24.44 6.76 24.96 6.02 25.54 5.06Z" />
</svg>
