<svg xmlns="http://www.w3.org/2000/svg" viewBox="0 0 23 21" width="23" height="21" fill="#e74c3c">
	<style>
		tspan { white-space:pre }
		.shp0 { fill: #e74c3c } 
	</style>
	<path id="vimeo" class="shp0" d="M1.29 6.48C3.04 5.11 5.53 2.5 7.47 2.5C9.41 2.5 9.88 4.34 10.15 6.39C10.42 8.43 11.18 12.9 12.2 12.9C13.23 12.9 15.57 8.95 15.44 7.42C15.31 5.89 13.61 6.12 12.68 6.56C13.54 3.5 15.52 1.69 18.04 1.69C20.57 1.69 21.18 3.64 21.18 5.79C21.18 9.08 14.41 19.15 10.32 19.15C7.79 19.15 7.16 15.48 6.65 13.67C6.14 11.85 5.13 7.09 3.95 6.79C3.49 6.71 2.2 7.72 2.2 7.72L1.29 6.48Z" />
</svg>
